<svg xmlns="http://www.w3.org/2000/svg" viewBox="0 0 100 122" width="100" height="122">
<defs>
<radialGradient id="b" cx="36%" cy="26%" r="82%"><stop offset="0%" stop-color="#ff7d94"></stop><stop offset="46%" stop-color="#ed254e"></stop><stop offset="100%" stop-color="#a20d30"></stop></radialGradient>
<radialGradient id="s" cx="50%" cy="50%" r="50%"><stop offset="0%" stop-color="#fff" stop-opacity="0.85"></stop><stop offset="70%" stop-color="#fff" stop-opacity="0.12"></stop><stop offset="100%" stop-color="#fff" stop-opacity="0"></stop></radialGradient>
<linearGradient id="l" x1="20%" y1="0%" x2="80%" y2="100%"><stop offset="0%" stop-color="#7ec45a"></stop><stop offset="100%" stop-color="#3f7d33"></stop></linearGradient>
</defs>

<ellipse cx="50" cy="117" rx="27" ry="5" fill="#a20d30" opacity="0.18"></ellipse>
<path d="M50 115 C 25 115, 10 90, 10 61 C 10 42, 24 32, 41 32 C 46 30, 54 30, 59 32 C 76 32, 90 42, 90 61 C 90 90, 75 115, 50 115 Z" fill="url(#b)"></path>
<path d="M50 115 C 25 115, 10 90, 10 61 C 10 42, 24 32, 41 32 C 46 30, 54 30, 59 32 C 76 32, 90 42, 90 61 C 90 90, 75 115, 50 115 Z" fill="none" stroke="#a20d30" stroke-width="1.4" opacity="0.35"></path>
<path d="M62 108 C 78 98, 86 78, 86 61 C 86 46, 78 38, 66 35 C 82 39, 90 49, 90 61 C 90 90, 76 113, 52 115 C 56 113, 59 111, 62 108 Z" fill="#a20d30" opacity="0.4"></path>
<ellipse cx="38" cy="54" rx="17" ry="20" fill="url(#s)"></ellipse>
<ellipse cx="34" cy="47" rx="4.6" ry="6.4" transform="rotate(-24 34 47)" fill="#fff" opacity="0.9"></ellipse>
<g transform="rotate(-18 34 52)"><ellipse cx="34" cy="52.6" rx="3.4" ry="4.7" fill="#a20d30" opacity="0.55"></ellipse><ellipse cx="34" cy="52" rx="2.3" ry="3.3" fill="#ffd23f"></ellipse><ellipse cx="34" cy="50.8" rx="1" ry="1.4" fill="#fff7d6" opacity="0.9"></ellipse></g><g transform="rotate(12 52 48)"><ellipse cx="52" cy="48.6" rx="3.4" ry="4.7" fill="#a20d30" opacity="0.55"></ellipse><ellipse cx="52" cy="48" rx="2.3" ry="3.3" fill="#ffd23f"></ellipse><ellipse cx="52" cy="46.8" rx="1" ry="1.4" fill="#fff7d6" opacity="0.9"></ellipse></g><g transform="rotate(20 68 54)"><ellipse cx="68" cy="54.6" rx="3.4" ry="4.7" fill="#a20d30" opacity="0.55"></ellipse><ellipse cx="68" cy="54" rx="2.3" ry="3.3" fill="#ffd23f"></ellipse><ellipse cx="68" cy="52.8" rx="1" ry="1.4" fill="#fff7d6" opacity="0.9"></ellipse></g><g transform="rotate(-8 43 63)"><ellipse cx="43" cy="63.6" rx="3.4" ry="4.7" fill="#a20d30" opacity="0.55"></ellipse><ellipse cx="43" cy="63" rx="2.3" ry="3.3" fill="#ffd23f"></ellipse><ellipse cx="43" cy="61.8" rx="1" ry="1.4" fill="#fff7d6" opacity="0.9"></ellipse></g><g transform="rotate(14 60 65)"><ellipse cx="60" cy="65.6" rx="3.4" ry="4.7" fill="#a20d30" opacity="0.55"></ellipse><ellipse cx="60" cy="65" rx="2.3" ry="3.3" fill="#ffd23f"></ellipse><ellipse cx="60" cy="63.8" rx="1" ry="1.4" fill="#fff7d6" opacity="0.9"></ellipse></g><g transform="rotate(-22 30 72)"><ellipse cx="30" cy="72.6" rx="3.4" ry="4.7" fill="#a20d30" opacity="0.55"></ellipse><ellipse cx="30" cy="72" rx="2.3" ry="3.3" fill="#ffd23f"></ellipse><ellipse cx="30" cy="70.8" rx="1" ry="1.4" fill="#fff7d6" opacity="0.9"></ellipse></g><g transform="rotate(6 51 79)"><ellipse cx="51" cy="79.6" rx="3.4" ry="4.7" fill="#a20d30" opacity="0.55"></ellipse><ellipse cx="51" cy="79" rx="2.3" ry="3.3" fill="#ffd23f"></ellipse><ellipse cx="51" cy="77.8" rx="1" ry="1.4" fill="#fff7d6" opacity="0.9"></ellipse></g><g transform="rotate(24 70 76)"><ellipse cx="70" cy="76.6" rx="3.4" ry="4.7" fill="#a20d30" opacity="0.55"></ellipse><ellipse cx="70" cy="76" rx="2.3" ry="3.3" fill="#ffd23f"></ellipse><ellipse cx="70" cy="74.8" rx="1" ry="1.4" fill="#fff7d6" opacity="0.9"></ellipse></g><g transform="rotate(-14 40 90)"><ellipse cx="40" cy="90.6" rx="3.4" ry="4.7" fill="#a20d30" opacity="0.55"></ellipse><ellipse cx="40" cy="90" rx="2.3" ry="3.3" fill="#ffd23f"></ellipse><ellipse cx="40" cy="88.8" rx="1" ry="1.4" fill="#fff7d6" opacity="0.9"></ellipse></g><g transform="rotate(16 60 91)"><ellipse cx="60" cy="91.6" rx="3.4" ry="4.7" fill="#a20d30" opacity="0.55"></ellipse><ellipse cx="60" cy="91" rx="2.3" ry="3.3" fill="#ffd23f"></ellipse><ellipse cx="60" cy="89.8" rx="1" ry="1.4" fill="#fff7d6" opacity="0.9"></ellipse></g><g transform="rotate(0 50 101)"><ellipse cx="50" cy="101.6" rx="3.4" ry="4.7" fill="#a20d30" opacity="0.55"></ellipse><ellipse cx="50" cy="101" rx="2.3" ry="3.3" fill="#ffd23f"></ellipse><ellipse cx="50" cy="99.8" rx="1" ry="1.4" fill="#fff7d6" opacity="0.9"></ellipse></g><g transform="rotate(-10 46 40)"><ellipse cx="46" cy="40.6" rx="3.4" ry="4.7" fill="#a20d30" opacity="0.55"></ellipse><ellipse cx="46" cy="40" rx="2.3" ry="3.3" fill="#ffd23f"></ellipse><ellipse cx="46" cy="38.8" rx="1" ry="1.4" fill="#fff7d6" opacity="0.9"></ellipse></g>
<path d="M50 4 C 53 23, 64 28, 80 22 C 71 34, 71 42, 82 50 C 66 46, 57 49, 50 60 C 43 49, 34 46, 18 50 C 29 42, 29 34, 20 22 C 36 28, 47 23, 50 4 Z" fill="url(#l)"></path>
<path d="M50 4 C 53 23, 64 28, 80 22 C 71 34, 71 42, 82 50" fill="none" stroke="#7ec45a" stroke-width="1.8" stroke-linecap="round" opacity="0.6"></path>
<ellipse cx="50" cy="34" rx="5.5" ry="4" fill="#3f7d33"></ellipse>
</svg>